<?xml version="1.0" encoding="UTF-8" standalone="no"?>
<svg width="844px" height="844px" viewBox="0 0 844 844" version="1.1" xmlns="http://www.w3.org/2000/svg" xmlns:xlink="http://www.w3.org/1999/xlink" xmlns:sketch="http://www.bohemiancoding.com/sketch/ns">
    <!-- Generator: Sketch 3.3 (11970) - http://www.bohemiancoding.com/sketch -->
    <title>Shape</title>
    <desc>Created with Sketch.</desc>
    <defs></defs>
    <g id="Page-1" stroke="none" stroke-width="1" fill="none" fill-rule="evenodd" sketch:type="MSPage">
        <g id="alipay" sketch:type="MSLayerGroup" fill="#1195DB">
            <path d="M843.875,266.23 L843.875,681.628 C843.875,771.206 771.235,843.875 681.628,843.875 L162.371,843.875 C72.793,843.875 0.124,771.235 0.124,681.628 L0.124,162.371 C0.124,72.793 72.764,0.124 162.371,0.124 L681.628,0.124 C761.461,0.124 827.862,57.818 841.367,133.798 C798.357,152.301 611.827,232.828 514.708,279.281 C440.799,189.742 363.366,136.017 246.65,136.017 C129.934,136.017 52.048,207.815 61.438,295.848 C67.601,353.628 107.218,447.96 279.213,431.735 C369.864,423.183 411.375,406.273 485.376,381.913 C504.392,416.958 520.355,455.556 532.338,496.639 L204.577,496.639 L204.577,529.091 L366.72,529.091 L366.72,587.504 L168.901,587.504 L168.901,623.201 L366.72,623.201 L366.72,707.352 C366.72,707.352 368.584,720.557 383.059,720.557 L464.189,720.557 L464.189,623.201 L675.126,623.201 L675.126,587.504 L464.188,587.504 L464.188,529.091 L636.183,529.091 C620.414,464.654 596.465,405.544 566.39,353.813 C616.42,335.765 843.875,266.23 843.875,266.23 L843.875,266.23 L843.875,266.23 Z M233.779,191.592 C110.461,191.592 90.991,269.477 97.481,301.929 C103.971,334.381 139.669,376.569 208.224,376.569 C287.057,376.569 357.54,356.455 442.257,315.192 C382.833,237.752 309.682,191.592 233.78,191.592 L233.779,191.592 Z" id="Shape" sketch:type="MSShapeGroup" transform="translate(421.999500, 421.999500) scale(1, -1) translate(-421.999500, -421.999500) "></path>
        </g>
    </g>
</svg>