<?xml version="1.0" encoding="utf-8"?>
<!-- Generator: Adobe Illustrator 19.1.0, SVG Export Plug-In . SVG Version: 6.00 Build 0)  -->
<svg version="1.1" id="图形" xmlns="http://www.w3.org/2000/svg" xmlns:xlink="http://www.w3.org/1999/xlink" x="0px" y="0px"
	 viewBox="214 -92.1 1024 1024" style="enable-background:new 214 -92.1 1024 1024;" xml:space="preserve">
<style type="text/css">
	.st0{fill:#FFFFFF;}
</style>
<path class="st0" d="M473,605.6c82.2,61.2,164.4,80.4,255.1,80.4c91.1,0,189.4-36.2,251.1-88c78.2,42.4,147.4,138.5,148.8,231.4
	H322.5C333.7,719.1,410.5,639.5,473,605.6z M973.8,556.9c-65.7,60.3-153.7,96.9-250.6,96.9s-184.9-36.6-250.6-96.5
	c-117.5,59-194.8,164.4-194.8,307.8h893.4C1171.3,721.7,1092.6,615.9,973.8,556.9z M432.8,426.5V199.1l-9.8,0.4
	C474.8,87.4,589.6,9.7,723.2,9.7c133.1,0,247.9,77.7,299.7,189.9l-9.4-0.4v227.4c63.9,0,116.1-50.9,116.1-113.5
	c0-42.9-24.1-80-59.9-99.6C1020.3,72.7,884-28.3,723.2-28.3s-297.1,101-347.1,241.7c-35.7,19.7-59.4,56.7-59.4,99.6
	C316.7,375.5,368.5,426.5,432.8,426.5L432.8,426.5z M722.8,536.8c-116.1,0-210-92-210-205.5s99.6-205.5,210-205.5
	c115.7,0,209.5,92,209.5,205.5S838.5,536.8,722.8,536.8z M723.2,85.6c-138.9,0-251.5,110.3-251.5,246.1
	c0,136.2,112.6,246.6,251.5,246.6c138.5,0,251.1-110.3,251.1-246.6C974.3,196,861.7,85.6,723.2,85.6z"/>
</svg>
