<?xml version="1.0" encoding="utf-8"?>
<!DOCTYPE svg PUBLIC "-//W3C//DTD SVG 1.1//EN" "http://www.w3.org/Graphics/SVG/1.1/DTD/svg11.dtd">
<svg style="width:308px;height:308px;" version="1.1" id="图形" xmlns="http://www.w3.org/2000/svg" xmlns:xlink="http://www.w3.org/1999/xlink" x="0px" y="0px" width="1024px" height="1024px" viewBox="0 0 1024 1024" enable-background="new 0 0 1024 1024" xml:space="preserve">
  <path class="svgpath" data-index="path_0" fill="#e1ddd9" d="M512 815.2c-14.144 0-25.6-11.328-25.6-25.312l0-151.52c0-13.984 11.456-25.28 25.6-25.28s25.632 11.328 25.632 25.28l0 151.52C537.632 803.872 526.144 815.2 512 815.2L512 815.2 512 815.2z" />
<path class="svgpath" data-index="path_1" fill="#e1ddd9" d="M792.736 928.032c25.824 0 37.44-5.472 38.688-6.208C831.488 921.76 832 920.352 832 916.864L832 516.064c0-19.968-17.632-36.224-39.264-36.224L231.264 479.84C209.6 479.84 192 496.096 192 516.064l0 400.8c0 2.368 0.192 3.744 0.096 4.064 2.912 2.112 14.688 7.104 39.168 7.104L792.736 928.032M792.736 992 231.264 992c-57.056 0-103.296-19.776-103.296-75.136L127.968 516.064c0-55.36 46.24-100.192 103.296-100.192l561.472 0c56.928 0 103.264 44.832 103.264 100.192l0 400.8C896 972.224 849.76 992 792.736 992L792.736 992 792.736 992z" />
<path class="svgpath" data-index="path_2" fill="#e1ddd9" d="M703.776 415.648 703.776 284.608l-0.288 0C701.888 179.936 616.928 95.552 512 95.552c-104.928 0-189.856 84.384-191.52 189.056l-0.224 3.04 0 160.736L256 448.384 256 287.648l0.224 0C256.224 286.624 256 285.632 256 284.608 256 145.12 370.624 32 512 32c131.968 0 240.512 98.592 254.432 225.12L768 257.12l0 158.528L703.776 415.648 703.776 415.648z" />

</svg>
