<?xml version="1.0" encoding="utf-8"?>
<!DOCTYPE svg PUBLIC "-//W3C//DTD SVG 1.1//EN" "http://www.w3.org/Graphics/SVG/1.1/DTD/svg11.dtd">
<svg style="width:308px;height:308px;" version="1.1" id="图形" xmlns="http://www.w3.org/2000/svg" xmlns:xlink="http://www.w3.org/1999/xlink" x="0px" y="0px" width="1024px" height="1024px" viewBox="0 0 1024 1024" enable-background="new 0 0 1024 1024" xml:space="preserve">
  <path class="svgpath" data-index="path_0" fill="#ff7676" d="M751.616 17.749333 330.410667 17.749333c-37.546667 0-68.266667 30.72-68.266667 68.266667l0 851.285333c0 37.546667 30.72 68.266667 68.266667 68.266667l420.522667 0c37.546667 0 68.266667-30.72 68.266667-68.266667L819.2 86.016C819.882667 48.469333 789.162667 17.749333 751.616 17.749333zM489.472 109.909333c0-7.509333 6.144-12.970667 12.970667-12.970667l81.237333 0c7.509333 0 12.970667 6.144 12.970667 12.970667l0 1.365333c0 7.509333-6.144 12.970667-12.970667 12.970667L502.442667 124.245333c-7.509333 0-12.970667-6.144-12.970667-12.970667L489.472 109.909333zM455.338667 96.938667c7.509333 0 14.336 6.144 14.336 13.653333 0 7.509333-6.144 13.653333-14.336 13.653333s-14.336-6.144-14.336-13.653333C441.002667 103.082667 447.829333 96.938667 455.338667 96.938667zM540.672 966.656c-27.306667 0-49.834667-22.528-49.834667-49.834667 0-27.306667 22.528-49.834667 49.834667-49.834667 27.306667 0 49.834667 22.528 49.834667 49.834667C590.506667 944.810667 568.661333 966.656 540.672 966.656zM776.192 832.170667 309.930667 832.170667 309.930667 187.733333l466.261333 0L776.192 832.170667z" />

</svg>
