<?xml version="1.0" encoding="utf-8"?>
<!DOCTYPE svg PUBLIC "-//W3C//DTD SVG 1.1//EN" "http://www.w3.org/Graphics/SVG/1.1/DTD/svg11.dtd">
<svg version="1.1" id="图形" xmlns="http://www.w3.org/2000/svg" xmlns:xlink="http://www.w3.org/1999/xlink" x="0px" y="0px" width="1024px" height="1024px" viewBox="0 0 1024 1024" enable-background="new 0 0 1024 1024" xml:space="preserve">
  <path fill="#0e932e" d="M235.977015 488.780186C235.977015 500.055603 240.618578 511.263915 248.590638 519.235977 256.564128 527.213739 267.771001 531.855309 279.046427 531.855309 290.320423 531.855309 301.528724 527.213739 309.500786 519.235977 317.472848 511.263915 322.11441 500.055603 322.11441 488.780186 322.11441 477.506185 317.472848 466.29789 309.500786 458.325828 301.528724 450.353766 290.320423 445.712196 279.046427 445.712196 267.771001 445.712196 256.564128 450.353766 248.590638 458.325828 240.618578 466.29789 235.977015 477.506185 235.977015 488.780186L235.977015 488.780186ZM571.419136 266.058035C571.419136 274.884147 575.056691 283.658837 581.29495 289.897097 587.537495 296.139657 596.31219 299.777212 605.138299 299.777212 613.964407 299.777212 622.739101 296.139657 628.975933 289.897097 635.218483 283.658837 638.856038 274.884147 638.856038 266.058035 638.856038 257.23194 635.218483 248.457233 628.975933 242.21469 622.739101 235.977865 613.964407 232.340309 605.138299 232.340309 596.31219 232.340309 587.537495 235.977865 581.29495 242.21469 575.056691 248.457233 571.419136 257.23194 571.419136 266.058035L571.419136 266.058035ZM455.671431 488.780186C455.671431 500.055603 460.312992 511.263915 468.290767 519.235977 476.262828 527.213739 487.469701 531.855309 498.745127 531.855309 510.019125 531.855309 521.227426 527.213739 529.199486 519.235977 537.171548 511.263915 541.81311 500.055603 541.81311 488.780186 541.81311 477.506185 537.171548 466.29789 529.199486 458.325828 521.227426 450.353766 510.019125 445.712196 498.745127 445.712196 487.469701 445.712196 476.262828 450.353766 468.290767 458.325828 460.312992 466.29789 455.671431 477.506185 455.671431 488.780186L455.671431 488.780186ZM856.926618 812 165.706622 812C74.192157 812 0 737.567915 0 645.746381L0-44.608137C0-136.429653 74.192157-210.861739 165.706622-210.861739L856.926618-210.861739C948.441088-210.861739 1022.633233-136.429653 1022.633233-44.608137L1022.633233 645.746381C1022.633233 737.567915 948.446788 812 856.926618 812L856.926618 812ZM383.760067 126.716928C345.059437 126.716928 313.940977 134.62185 275.157513 142.281148L166.777752 87.937741 197.784815 181.198865C120.1679 235.452297 73.718002 305.344222 73.718002 390.52189 73.718002 538.036446 213.327621 654.192606 383.760067 654.192606 536.206104 654.192606 669.751706 561.377075 696.579925 436.457643 686.716962 437.561617 676.775458 438.281421 666.72826 438.281421 519.453635 438.281421 403.13466 328.367804 403.13466 192.919876 403.13466 170.376175 406.643681 148.663654 412.70342 127.949431 403.13466 127.196791 393.490208 126.716928 383.760067 126.716928L383.760067 126.716928ZM841.093888 18.114372 864.413099-59.369728 779.369677-12.787012C748.362615-20.557705 717.21559-28.356949 686.342775-28.356949 538.828228-28.356949 422.644932 72.473481 422.644932 196.635989 422.644932 320.597111 538.828228 421.640346 686.342775 421.640346 825.656764 421.640346 949.690726 320.597111 949.690726 196.635989 949.690726 126.716928 903.325099 64.802765 841.093888 18.114372L841.093888 18.114372ZM740.362001 266.058035C740.362001 274.884147 743.999556 283.658837 750.242099 289.897097 756.480358 296.139657 765.255049 299.777212 774.081161 299.777212 782.907273 299.777212 791.681963 296.139657 797.924506 289.897097 804.161331 283.658837 807.798903 274.884147 807.798903 266.058035 807.798903 257.23194 804.161331 248.457233 797.924506 242.21469 791.681963 235.977865 782.907273 232.340309 774.081161 232.340309 765.255049 232.340309 756.480358 235.977865 750.242099 242.21469 743.999556 248.457233 740.362001 257.23194 740.362001 266.058035L740.362001 266.058035Z" transform="translate(0, 812) scale(1, -1)"/>
</svg>
